<?xml version="1.0" encoding="utf-8"?>
<!-- Generator: Adobe Illustrator 21.0.0, SVG Export Plug-In . SVG Version: 6.00 Build 0)  -->
<svg version="1.1" id="Layer_1" xmlns="http://www.w3.org/2000/svg" xmlns:xlink="http://www.w3.org/1999/xlink" x="0px" y="0px"
	 viewBox="0 0 16 16" style="enable-background:new 0 0 16 16;" xml:space="preserve">
<style type="text/css">
	.st0{fill:#f0b76c;}
	.st1{fill:#FFFFFF;}
</style>
<g>
	<circle class="st0" cx="8" cy="8" r="8"/>
</g>
<g>
	<g>
		<path class="st1" d="M8,10.6c-0.6,0-1,0.4-1,1c0,0.6,0.4,1,1,1c0.6,0,1-0.4,1-1C9,11,8.6,10.6,8,10.6z"/>
	</g>
	<g>
		<path class="st1" d="M7,9.6l0-0.1C7,9,6.9,8.2,7.8,7.2c0.3-0.3,0.6-0.6,0.8-0.8C9,6,9.1,5.9,9.2,5.6c0.1-0.4-0.1-1-0.6-1.2
			C8,4.2,7.5,4.5,7.2,4.8c-0.3,0.3-0.4,1-0.4,1.1l-2-0.1c0-0.1,0.1-1.4,0.9-2.3c0.9-1,2.3-1.4,3.6-0.9c1.4,0.5,2.2,2,1.9,3.5
			c-0.2,1-0.7,1.4-1.2,1.8C9.7,8.1,9.5,8.2,9.3,8.5C9,8.9,9,9.1,9,9.4l0,0.2L7,9.6z"/>
	</g>
</g>
</svg>
