<?xml version="1.0" encoding="utf-8"?>
<!-- Generator: Adobe Illustrator 21.0.0, SVG Export Plug-In . SVG Version: 6.00 Build 0)  -->
<svg version="1.1" id="Layer_1" xmlns="http://www.w3.org/2000/svg" xmlns:xlink="http://www.w3.org/1999/xlink" x="0px" y="0px"
	 viewBox="0 0 20 20" style="enable-background:new 0 0 20 20;" xml:space="preserve">
<style type="text/css">
	.st0{fill:#F1585B;}
</style>
<path class="st0" d="M13.6,18H6.4c-1.1,0-2.1-0.9-2.3-2L3.5,6h13l-0.6,10C15.7,17.1,14.7,18,13.6,18z"/>
<g>
	<path class="st0" d="M18,5H2v0c0-1.1,0.7-2,1.6-2h12.8C17.3,3,18,3.9,18,5L18,5z"/>
</g>
<g>
	<path class="st0" d="M13,3H7v0c0-1.1,0.9-2,2-2h2C12.1,1,13,1.9,13,3L13,3z"/>
</g>
</svg>
