<?xml version="1.0" encoding="UTF-8" standalone="no"?>
<svg width="487px" height="464px" viewBox="0 0 487 464" version="1.1" xmlns="http://www.w3.org/2000/svg" xmlns:xlink="http://www.w3.org/1999/xlink">
    <!-- Generator: Sketch 42 (36781) - http://www.bohemiancoding.com/sketch -->
    <title>Combined Shape</title>
    <desc>Created with Sketch.</desc>
    <defs></defs>
    <g id="Page-1" stroke="none" stroke-width="1" fill="none" fill-rule="evenodd">
        <g id="Artboard" transform="translate(0.000000, -12.000000)" fill="#FFFFFF">
            <g id="Group" transform="translate(0.000000, 12.000000)">
                <path d="M31.1027527,293 L82.4130408,293 C107.53507,364.076735 175.320652,415 255,415 C356.068109,415 438,333.068109 438,232 C438,130.931891 356.068109,49 255,49 C182.787461,49 120.343988,90.8263461 90.5743104,151.57431 L159,220 L90.6935802,220 L13.1524964,220 L0,220 L0,61 L54.3909953,115.390995 C94.5908486,46.3820218 169.378873,0 255,0 C383.130062,0 487,103.869938 487,232 C487,360.130062 383.130062,464 255,464 C147.980509,464 57.8855507,391.537458 31.1027527,293 Z M256,225.091033 L353.458414,283.649956 L334.402005,315.365146 L219.541586,246.350044 L219.751914,246 L219,246 L219,122 L256,122 L256,225.091033 Z" id="Combined-Shape"></path>
            </g>
        </g>
    </g>
</svg>