<?xml version="1.0" encoding="utf-8"?>

<svg version="1.1" id="Layer_1" xmlns="http://www.w3.org/2000/svg" xmlns:xlink="http://www.w3.org/1999/xlink" x="0px" y="0px"
	 viewBox="0 0 16 16" style="enable-background:new 0 0 16 16;" xml:space="preserve">
<path style="fill-rule:evenodd;clip-rule:evenodd;fill:#ffffff;" d="M13.5,6.8c0-0.1,0-0.2,0-0.3c0-2.2-1.3-4.3-4-4.3c-2.2,0-3,1.3-3.6,2.7C5.5,4.7,5.1,4.5,4.6,4.5
	c-1.1,0-2,0.9-2,2c0,0.1,0,0.2,0,0.3C1.1,7.1,0,8.4,0,9.9c0,1.7,1.4,3.2,3.1,3.2h4.5V10H6.2c-0.4,0-0.6-0.5-0.4-0.8l2.2-2.7
	c0.2-0.2,0.5-0.2,0.7,0l2.2,2.7c0.3,0.3,0,0.8-0.4,0.8H9.3v3.1h3.6c1.7,0,3.1-1.4,3.1-3.2C16,8.4,14.9,7.1,13.5,6.8z"/>
</svg>
