<svg version="1.1" id="Layer_1" xmlns="http://www.w3.org/2000/svg" xmlns:xlink="http://www.w3.org/1999/xlink" x="0px" y="0px"
	 width="34.2px" height="46.5px" viewBox="0 0 34.2 46.5" style="enable-background:new 0 0 34.2 46.5;fill:#d9963c;" xml:space="preserve">
<g>
	<path class="st0" d="M31,46.5H3.1c-1.7,0-3.1-1.3-3.1-3V29.1c0-4.7,4-8.5,9-8.5h3.5c0.8,0,1.4-0.6,1.4-1.3V19
		c-3.8-1.5-6.3-6.2-6.3-10c0-2.4,1-4.6,2.7-6.3c1.9-1.8,4.5-2.8,7.2-2.7c2.7,0.1,5.3,1.3,7,3.4c1.7,2.1,2.4,4.7,2,7.3
		c-0.6,4.1-3,7.2-6.1,8.3v0.2c0,0.7,0.6,1.3,1.4,1.3h3.5c4.9,0,9,3.8,9,8.5v14.4C34.2,45.1,32.8,46.5,31,46.5z M9,22.6
		c-3.8,0-7,2.9-7,6.5v14.4c0,0.5,0.5,1,1.1,1H31c0.6,0,1.1-0.5,1.1-1V29.1c0-3.6-3.1-6.5-7-6.5h-3.5c-1.9,0-3.4-1.5-3.4-3.3v-1
		c0-0.5,0.3-0.9,0.8-1c2.8-0.7,4.8-3.3,5.4-6.9c0.3-2-0.3-4.1-1.6-5.7C21.5,3,19.5,2.1,17.3,2c-2.1-0.1-4.2,0.7-5.7,2.2
		c-1.4,1.3-2.1,3.1-2.1,4.9c0,3.2,2.4,7.4,5.6,8.3c0.4,0.1,0.8,0.5,0.8,1v1c0,1.8-1.5,3.3-3.4,3.3H9z"/>
</g>
</svg>
