<svg version="1.1" id="Layer_1" xmlns="http://www.w3.org/2000/svg" xmlns:xlink="http://www.w3.org/1999/xlink" x="0px" y="0px"
	 width="30.2px" height="29.4px" viewBox="0 0 30.2 29.4" style="enable-background:new 0 0 30.2 29.4;fill:#d9963c;" xml:space="preserve">
<g>
	<path class="st0" d="M4,29.4c-0.6,0-1-0.4-1-1V11.8c0-0.6,0.4-1,1-1s1,0.4,1,1v16.7C5,29,4.6,29.4,4,29.4z"/>
</g>
<g>
	<path class="st0" d="M4,6.8c-0.6,0-1-0.4-1-1V1c0-0.6,0.4-1,1-1s1,0.4,1,1v4.8C5,6.3,4.6,6.8,4,6.8z"/>
</g>
<g>
	<path class="st0" d="M4,12.8c-2.2,0-4-1.8-4-4s1.8-4,4-4s4,1.8,4,4S6.2,12.8,4,12.8z M4,6.8c-1.1,0-2,0.9-2,2s0.9,2,2,2s2-0.9,2-2
		S5.1,6.8,4,6.8z"/>
</g>
<g>
	<path class="st0" d="M15.1,29.4c-0.6,0-1-0.4-1-1V17.7c0-0.6,0.4-1,1-1s1,0.4,1,1v10.7C16.1,29,15.7,29.4,15.1,29.4z"/>
</g>
<g>
	<path class="st0" d="M15.1,12.7c-0.6,0-1-0.4-1-1V1c0-0.6,0.4-1,1-1s1,0.4,1,1v10.7C16.1,12.3,15.7,12.7,15.1,12.7z"/>
</g>
<g>
	<path class="st0" d="M15.1,18.7c-2.2,0-4-1.8-4-4s1.8-4,4-4c2.2,0,4,1.8,4,4S17.3,18.7,15.1,18.7z M15.1,12.7c-1.1,0-2,0.9-2,2
		c0,1.1,0.9,2,2,2c1.1,0,2-0.9,2-2C17.1,13.6,16.2,12.7,15.1,12.7z"/>
</g>
<g>
	<path class="st0" d="M26.2,19c-0.6,0-1-0.4-1-1V1c0-0.6,0.4-1,1-1s1,0.4,1,1v17C27.2,18.6,26.8,19,26.2,19z"/>
</g>
<g>
	<path class="st0" d="M26.2,29.4c-0.6,0-1-0.4-1-1V24c0-0.6,0.4-1,1-1s1,0.4,1,1v4.4C27.2,29,26.8,29.4,26.2,29.4z"/>
</g>
<g>
	<path class="st0" d="M26.2,25c-2.2,0-4-1.8-4-4s1.8-4,4-4s4,1.8,4,4S28.5,25,26.2,25z M26.2,19c-1.1,0-2,0.9-2,2s0.9,2,2,2
		s2-0.9,2-2S27.4,19,26.2,19z"/>
</g>
</svg>
