<svg version="1.1" id="Layer_1" xmlns="http://www.w3.org/2000/svg" xmlns:xlink="http://www.w3.org/1999/xlink" x="0px" y="0px"
	 width="29px" height="36px" viewBox="0 0 29 36" style="enable-background:new 0 0 29 36;fill:#d9963c;" xml:space="preserve">
<path class="st0" d="M28,0H5C4.5,0,4,0.4,4,1v3H1C0.4,4,0,4.4,0,5v30c0,0.6,0.4,1,1,1h23c0.6,0,1-0.4,1-1v-3.6l3.7-3.7
	c0.2-0.2,0.3-0.4,0.3-0.7V1C29,0.4,28.5,0,28,0z M23,34H2V6h2v25c0,0.6,0.4,1,1,1h18V34z M24,29.6V27h2.6L24,29.6z M27,25h-4
	c-0.6,0-1,0.4-1,1v3.9c0,0,0,0,0,0.1H6V5c0,0,0,0,0,0s0,0,0,0V2h21V25z M9,8h14c0.6,0,1-0.4,1-1s-0.4-1-1-1H9C8.5,6,8,6.5,8,7
	S8.5,8,9,8z M9,12h14c0.6,0,1-0.4,1-1s-0.4-1-1-1H9c-0.6,0-1,0.4-1,1S8.5,12,9,12z M9,16h14c0.6,0,1-0.4,1-1s-0.4-1-1-1H9
	c-0.6,0-1,0.4-1,1S8.5,16,9,16z M9,20h7.3c0.6,0,1-0.4,1-1s-0.4-1-1-1H9c-0.6,0-1,0.4-1,1S8.5,20,9,20z"/>
</svg>
