<svg version="1.1" id="Layer_1" xmlns="http://www.w3.org/2000/svg" xmlns:xlink="http://www.w3.org/1999/xlink" x="0px" y="0px"
	 width="24px" height="35px" viewBox="0 0 24 35" style="enable-background:new 0 0 24 35;fill:#d9963c;" xml:space="preserve">
<path class="st0" d="M20,3c-2.5-2.3-6-3.4-9.4-3C5.2,0.7,0.8,5,0.1,10.3c-0.6,4.3,1.1,8.5,4.5,11.1C6.1,22.6,7,24.4,7,26.2v1.3
	c-0.6,0.5-1,1.2-1,2C6,30,6.2,30.5,6.5,31C6.2,31.4,6,31.9,6,32.5C6,33.8,7.1,35,8.5,35h7c1.4,0,2.5-1.1,2.5-2.5
	c0-0.6-0.2-1.1-0.5-1.5c0.3-0.4,0.5-0.9,0.5-1.5c0-0.8-0.4-1.5-1-2v-1.3c0-1.8,0.9-3.6,2.4-4.8c2.9-2.3,4.6-5.7,4.6-9.4
	C24,8.6,22.5,5.3,20,3z M15.5,33h-7C8.2,33,8,32.7,8,32.5S8.2,32,8.5,32h7c0.3,0,0.5,0.2,0.5,0.5S15.8,33,15.5,33z M15.5,30h-7
	C8.2,30,8,29.7,8,29.5C8,29.2,8.2,29,8.5,29h7c0.3,0,0.5,0.2,0.5,0.5C16,29.7,15.8,30,15.5,30z M18.2,19.8c-2,1.6-3.2,3.9-3.2,6.3
	V27H9v-0.8c0-2.4-1.2-4.7-3.2-6.3c-2.8-2.2-4.2-5.7-3.7-9.3c0.6-4.4,4.3-8,8.7-8.5c2.9-0.3,5.7,0.5,7.8,2.5C20.8,6.4,22,9.2,22,12
	C22,15.1,20.6,17.9,18.2,19.8z M13.9,14.1c0-0.1-0.1-0.1-0.1-0.2c0,0-0.1-0.1-0.1-0.1c0,0,0,0,0,0c0,0,0,0,0,0l-2.1-2l2-2
	c0.4-0.4,0.4-1,0-1.4c-0.4-0.4-1-0.4-1.4,0L9.4,11c-0.2,0.2-0.3,0.5-0.3,0.7c0,0.3,0.1,0.5,0.3,0.7l2.1,2l-2.1,2
	c-0.2,0.2-0.3,0.4-0.3,0.7s0.1,0.5,0.3,0.7l2.8,2.7c0.2,0.2,0.4,0.3,0.7,0.3c0.3,0,0.5-0.1,0.7-0.3c0.4-0.4,0.4-1,0-1.4l-2-2l2.1-2
	c0,0,0,0,0,0c0,0,0,0,0,0c0,0,0.1-0.1,0.1-0.1c0-0.1,0.1-0.1,0.1-0.2c0-0.1,0-0.1,0-0.2c0-0.1,0-0.1,0-0.2c0-0.1,0-0.1,0-0.2
	C13.9,14.2,13.9,14.2,13.9,14.1z"/>
</svg>
