<svg version="1.1" id="Layer_1" xmlns="http://www.w3.org/2000/svg" xmlns:xlink="http://www.w3.org/1999/xlink" x="0px" y="0px"
	 width="35.3px" height="43.6px" viewBox="0 0 35.3 43.6" style="enable-background:new 0 0 35.3 43.6;fill:#d9963c;" xml:space="preserve">
<path class="st0" d="M32.4,13.8C31.9,6.1,25.5,0,17.7,0S3.4,6.1,3,13.8c-1.7,0.4-3,1.9-3,3.7v6.7C0,26.3,1.7,28,3.7,28h0.3
	c2.1,0,3.7-1.7,3.7-3.7v-6.7c0-1.8-1.2-3.2-2.9-3.6C5.4,7.3,10.9,2,17.7,2s12.3,5.3,12.7,11.9c-1.6,0.4-2.9,1.9-2.9,3.6v6.7
	c0,1.8,1.2,3.2,2.9,3.6c-0.3,4.6-3,8.6-7.2,10.6c-0.6-0.8-1.5-1.3-2.6-1.3c-1.8,0-3.2,1.4-3.2,3.2c0,1.8,1.4,3.2,3.2,3.2
	c1.7,0,3.2-1.4,3.2-3.1c5-2.3,8.2-7.1,8.6-12.5c1.7-0.4,2.9-1.9,2.9-3.7v-6.7C35.3,15.7,34.1,14.2,32.4,13.8z M5.8,17.5v6.7
	c0,1-0.8,1.7-1.7,1.7H3.7c-1,0-1.7-0.8-1.7-1.7v-6.7c0-1,0.8-1.7,1.7-1.7h0.3C5,15.8,5.8,16.5,5.8,17.5z M20.6,41.6
	c-0.7,0-1.2-0.5-1.2-1.2s0.5-1.2,1.2-1.2s1.2,0.5,1.2,1.2S21.3,41.6,20.6,41.6z M33.3,24.2c0,1-0.8,1.7-1.7,1.7h-0.3
	c-1,0-1.7-0.8-1.7-1.7v-6.7c0-1,0.8-1.7,1.7-1.7h0.3c1,0,1.7,0.8,1.7,1.7V24.2z"/>
</svg>
