<svg version="1.1" id="Layer_1" xmlns="http://www.w3.org/2000/svg" xmlns:xlink="http://www.w3.org/1999/xlink" x="0px" y="0px"
	 width="36px" height="35px" viewBox="0 0 36 35" style="enable-background:new 0 0 36 35;fill:#d9963c;" xml:space="preserve">
<path class="st0" d="M31.8,0H4.2C1.9,0,0,1.9,0,4.2v17.6C0,24.1,1.9,26,4.2,26h27.6c2.3,0,4.2-1.9,4.2-4.2V4.2C36,1.9,34.1,0,31.8,0
	z M34,21.8c0,1.2-1,2.2-2.2,2.2H4.2C3,24,2,23,2,21.8V4.2C2,3,3,2,4.2,2h27.6C33,2,34,3,34,4.2V21.8z M35,31h-7.6
	c-0.4-1.2-1.5-2-2.8-2s-2.4,0.8-2.8,2H1c-0.6,0-1,0.4-1,1s0.4,1,1,1h20.7c0.4,1.2,1.5,2,2.8,2s2.4-0.8,2.8-2H35c0.6,0,1-0.4,1-1
	S35.5,31,35,31z M24.5,33c-0.6,0-1-0.4-1-1s0.4-1,1-1s1,0.4,1,1S25.1,33,24.5,33z M22.4,12.1l-8-4c-0.3-0.2-0.7-0.1-1,0
	C13.2,8.3,13,8.7,13,9v8c0,0.3,0.2,0.7,0.5,0.9c0.2,0.1,0.3,0.1,0.5,0.1c0.2,0,0.3,0,0.4-0.1l8-4c0.3-0.2,0.6-0.5,0.6-0.9
	S22.8,12.3,22.4,12.1z M15,15.4v-4.8l4.8,2.4L15,15.4z"/>
</svg>
