<?xml version="1.0" encoding="utf-8"?>
<!-- Generator: Adobe Illustrator 21.0.2, SVG Export Plug-In . SVG Version: 6.00 Build 0)  -->
<svg version="1.1" id="Layer_1" xmlns="http://www.w3.org/2000/svg" xmlns:xlink="http://www.w3.org/1999/xlink" width="16px" height="32px" xml:space="preserve">
    <defs>
        <symbol id="st-container">
            <path class="st0" d="M15.4,0.7l-0.2-0.2c-0.7-0.7-2-0.7-2.7,0l-1.9,1.9l2.9,2.9l1.9-1.9C16.2,2.7,16.2,1.5,15.4,0.7z M3,10.1
            	C3,10.1,3,10.2,3,10.1c0,0.1-0.1,0.1-0.1,0.1l-2.8,5C0,15.5,0,15.7,0.1,15.9C0.2,15.9,0.4,16,0.5,16c0.1,0,0.2,0,0.2-0.1l5-2.8
            	c0,0,0,0,0.1,0c0,0,0,0,0.1,0l7-7L10,3.1L3,10.1z M1.8,14.2l1.8-3.1l1.1,0.3l0.3,1.1L1.8,14.2z"/>
        </symbol>
    </defs>
    <use xlink:href="#st-container" x="0" y="0" fill="#6d808f" />
    <use xlink:href="#st-container" x="0" y="16" fill="#ffffff" />
</svg>
