<?xml version="1.0" encoding="utf-8"?>
<!-- Generator: Adobe Illustrator 21.0.2, SVG Export Plug-In . SVG Version: 6.00 Build 0)  -->
<svg version="1.1" id="Layer_1" xmlns="http://www.w3.org/2000/svg" xmlns:xlink="http://www.w3.org/1999/xlink" width="16px" height="32px" xml:space="preserve">
    <defs>
        <symbol id="st-container">
            <g>
            	<path class="st0" d="M15.7,3.4L8.6,0.2c-0.1-0.1-0.3-0.1-0.4,0L1.2,3.4c0,0,0,0,0,0l7.3,3.4L15.7,3.4C15.7,3.4,15.7,3.4,15.7,3.4z
            		 M1,11.7c0,0.2,0.1,0.3,0.3,0.4L8,16V7.7L1,4.4V11.7z M9,7.7V16l6.7-3.8c0.2-0.1,0.3-0.3,0.3-0.4V4.4L9,7.7z"/>
            </g>
        </symbol>
    </defs>
    <use xlink:href="#st-container" x="0" y="0" fill="#6d808f" />
    <use xlink:href="#st-container" x="0" y="16" fill="#ffffff" />
</svg>
