<?xml version="1.0" encoding="utf-8"?>
<!-- Generator: Adobe Illustrator 21.0.2, SVG Export Plug-In . SVG Version: 6.00 Build 0)  -->
<svg version="1.1" id="Layer_1" xmlns="http://www.w3.org/2000/svg" xmlns:xlink="http://www.w3.org/1999/xlink" width="16px" height="32px" xml:space="preserve">
    <defs>
        <symbol id="st-container">
            <path class="st0" d="M8,0C3.6,0,0,3.6,0,8s3.6,8,8,8s8-3.6,8-8S12.4,0,8,0z M15,7.5h-3.5c-0.1-2.6-0.7-4.9-1.6-6.2
            	C12.7,2.1,14.8,4.5,15,7.5z M8,15c-1,0-2.4-2.5-2.5-6.5h5C10.4,12.5,9,15,8,15z M5.5,7.5C5.6,3.5,7,1,8,1s2.4,2.5,2.5,6.5H5.5z
            	 M6.1,1.3C5.2,2.6,4.6,4.9,4.5,7.5H1C1.2,4.5,3.3,2.1,6.1,1.3z M1,8.5h3.5c0.1,2.6,0.7,4.9,1.6,6.2C3.3,13.9,1.2,11.5,1,8.5z
            	 M9.9,14.7c0.9-1.3,1.5-3.6,1.6-6.2H15C14.8,11.5,12.7,13.9,9.9,14.7z"/>
        </symbol>
    </defs>
    <use xlink:href="#st-container" x="0" y="0" fill="#6d808f" />
    <use xlink:href="#st-container" x="0" y="16" fill="#ffffff" />
</svg>
