<?xml version="1.0" encoding="utf-8"?>
<!-- Generator: Adobe Illustrator 21.0.2, SVG Export Plug-In . SVG Version: 6.00 Build 0)  -->
<svg version="1.1" id="Layer_1" xmlns="http://www.w3.org/2000/svg" xmlns:xlink="http://www.w3.org/1999/xlink" x="0px" y="0px"
	 width="153.6px" height="13px" viewBox="0 0 153.6 13" style="enable-background:new 0 0 153.6 13;" xml:space="preserve">
<style type="text/css">
	.st0{fill:#ffffff;}
</style>
<g>
	<path class="st0" d="M0,0.2h1.4L6,7.1l4.6-6.9h1.4v12.6h-1.4V2.6L6,9.3H6L1.4,2.6v10.2H0V0.2z"/>
	<path class="st0" d="M23.9,0.1h1.3L31,12.8h-1.5L28,9.5h-6.9l-1.5,3.3h-1.5L23.9,0.1z M27.4,8.2l-2.9-6.4l-2.9,6.4H27.4z"/>
	<path class="st0" d="M36,10.9l0.9-1c1.3,1.2,2.6,1.8,4.3,1.8c1.7,0,2.8-0.9,2.8-2.1v0c0-1.2-0.6-1.8-3.3-2.4
		c-2.9-0.6-4.2-1.6-4.2-3.6v0c0-2,1.7-3.4,4.1-3.4c1.8,0,3.2,0.5,4.4,1.5l-0.8,1.1c-1.2-1-2.3-1.4-3.6-1.4c-1.6,0-2.7,0.9-2.7,2v0
		c0,1.2,0.6,1.9,3.4,2.4c2.8,0.6,4.1,1.6,4.1,3.6v0c0,2.2-1.8,3.6-4.3,3.6C39.1,13,37.5,12.3,36,10.9z"/>
	<path class="st0" d="M55,1.5h-4.2V0.2h9.9v1.3h-4.2v11.3H55V1.5z"/>
	<path class="st0" d="M66.9,0.2H76v1.3h-7.7v4.3h6.9v1.3h-6.9v4.4h7.8v1.3h-9.2V0.2z"/>
	<path class="st0" d="M82.6,0.2H88c1.5,0,2.8,0.5,3.6,1.3c0.6,0.6,1,1.5,1,2.5v0c0,2.1-1.4,3.3-3.4,3.7l3.9,5.1h-1.7l-3.7-4.9h0H84
		v4.9h-1.4V0.2z M87.9,6.6c1.9,0,3.2-1,3.2-2.6v0c0-1.5-1.2-2.5-3.2-2.5H84v5.1H87.9z"/>
	<path class="st0" d="M99.2,0.2h1.4v7.5l7.2-7.5h1.8l-5.4,5.5l5.6,7.1h-1.8l-4.8-6.1l-2.7,2.7v3.4h-1.4V0.2z"/>
	<path class="st0" d="M115.7,0.2h9.1v1.3h-7.7v4.3h6.9v1.3h-6.9v4.4h7.8v1.3h-9.2V0.2z"/>
	<path class="st0" d="M135.3,7.8l-5.2-7.6h1.7l4.2,6.3l4.3-6.3h1.7l-5.2,7.6v5h-1.4V7.8z"/>
</g>
<g>
	<path class="st0" d="M151.4,4.5c-1.2,0-2.2-1-2.2-2.2s1-2.2,2.2-2.2s2.2,1,2.2,2.2S152.6,4.5,151.4,4.5z M151.4,0.5
		c-1,0-1.8,0.8-1.8,1.8s0.8,1.8,1.8,1.8s1.8-0.8,1.8-1.8S152.4,0.5,151.4,0.5z"/>
</g>
<g>
	<path class="st0" d="M151.7,1.2c0.1,0,0.2,0,0.3,0c0.1,0,0.1,0.1,0.2,0.1c0.1,0.1,0.1,0.1,0.1,0.2c0,0.1,0,0.2,0,0.2
		c0,0.1,0,0.2-0.1,0.3c-0.1,0.1-0.1,0.2-0.3,0.2v0c0.1,0,0.1,0,0.1,0.1c0,0,0.1,0.1,0.1,0.1s0,0.1,0.1,0.2c0,0.1,0,0.1,0,0.2
		c0,0,0,0.1,0,0.1s0,0.1,0,0.1c0,0,0,0.1,0,0.1c0,0,0,0.1,0,0.1h-0.5c0-0.1,0-0.2,0-0.2c0-0.1,0-0.2,0-0.3c0-0.1-0.1-0.2-0.1-0.3
		c-0.1-0.1-0.1-0.1-0.3-0.1H151v0.9h-0.5V1.2H151.7z M151.5,2.2c0.1,0,0.2,0,0.2-0.1c0.1,0,0.1-0.1,0.1-0.2c0-0.1,0-0.2-0.1-0.2
		c-0.1,0-0.1-0.1-0.2-0.1H151v0.6H151.5z"/>
</g>
</svg>
