<?xml version="1.0" encoding="utf-8"?>
<!-- Generator: Adobe Illustrator 21.0.2, SVG Export Plug-In . SVG Version: 6.00 Build 0)  -->
<svg version="1.1" id="Layer_1" xmlns="http://www.w3.org/2000/svg" xmlns:xlink="http://www.w3.org/1999/xlink" x="0px" y="0px"
	 width="16px" height="13.9px" viewBox="0 0 16 13.9" style="enable-background:new 0 0 16 13.9;" xml:space="preserve">
<style type="text/css">
    .st0{fill:#ffffff;}
</style>
<path class="st0" d="M9.1,0C5.3,0,2.3,3,2.1,6.7H0l2.6,3l2.6-3H3.1C3.3,3.5,5.9,1,9.1,1C12.3,1,15,3.7,15,6.9c0,3.3-2.7,5.9-5.9,5.9
	c-1,0-2.1-0.3-3-0.8L5.6,13c1,0.6,2.2,0.9,3.5,0.9c3.8,0,6.9-3.1,6.9-6.9S12.9,0,9.1,0z M8.6,3.2v3.9l2.6,2.6L11.8,9L9.6,6.7V3.2
	H8.6z"/>
</svg>
