<?xml version="1.0" encoding="utf-8"?>
<!-- Generator: Adobe Illustrator 21.0.2, SVG Export Plug-In . SVG Version: 6.00 Build 0)  -->
<svg version="1.1" id="Layer_1" xmlns="http://www.w3.org/2000/svg" xmlns:xlink="http://www.w3.org/1999/xlink" width="16px" height="32px" xml:space="preserve">
    <defs>
        <symbol id="st-container">
            <path class="st0" d="M14,4h-3V2.5C11,1.7,10.3,1,9.5,1H6.5C5.7,1,5,1.7,5,2.5V4H2C0.9,4,0,4.9,0,6v8c0,1.1,0.9,2,2,2h12
            	c1.1,0,2-0.9,2-2V6C16,4.9,15.1,4,14,4z M6,2.5C6,2.2,6.2,2,6.5,2h2.9C9.8,2,10,2.2,10,2.5V4H6V2.5z M8,9C7.4,9,7,8.6,7,8
            	c0-0.6,0.4-1,1-1s1,0.4,1,1C9,8.6,8.6,9,8,9z"/>
        </symbol>
    </defs>
    <use xlink:href="#st-container" x="0" y="0" fill="#6d808f" />
    <use xlink:href="#st-container" x="0" y="16" fill="#ffffff" />
</svg>
