<?xml version="1.0" encoding="utf-8"?>
<!-- Generator: Adobe Illustrator 21.0.2, SVG Export Plug-In . SVG Version: 6.00 Build 0)  -->
<svg version="1.1" id="Layer_1" xmlns="http://www.w3.org/2000/svg" xmlns:xlink="http://www.w3.org/1999/xlink" width="16px" height="32px" xml:space="preserve">
    <defs>
        <symbol id="st-container">
            <path class="st0" d="M10,0C6.7,0,4,2.7,4,6c0,1.3,0.4,2.5,1.1,3.5L0,14.6L1.4,16l5.1-5.1c1,0.7,2.2,1.1,3.5,1.1c3.3,0,6-2.7,6-6
            	S13.3,0,10,0z M10,10c-2.2,0-4-1.8-4-4c0-2.2,1.8-4,4-4s4,1.8,4,4C14,8.2,12.2,10,10,10z"/>
        </symbol>
    </defs>
    <use xlink:href="#st-container" x="0" y="0" fill="#6d808f" />
    <use xlink:href="#st-container" x="0" y="16" fill="#ffffff" />
</svg>
