<?xml version="1.0" encoding="utf-8"?>
<!-- Generator: Adobe Illustrator 21.0.2, SVG Export Plug-In . SVG Version: 6.00 Build 0)  -->
<svg version="1.1" id="Layer_1" xmlns="http://www.w3.org/2000/svg" xmlns:xlink="http://www.w3.org/1999/xlink" x="0px" y="0px"
	 width="16px" height="16px" viewBox="0 0 16 16" style="enable-background:new 0 0 16 16;" xml:space="preserve">
<style type="text/css">
	.st0{fill:#ffffff;}
</style>
<path class="st0" d="M10-0.1c-3.3,0-6,2.7-6,6c0,1.3,0.4,2.5,1.1,3.5l-4.8,4.8c-0.4,0.4-0.4,1,0,1.4C0.5,15.9,0.8,16,1,16
	s0.5-0.1,0.7-0.3l4.8-4.8c1,0.7,2.2,1.1,3.4,1.1c3.3,0,6-2.7,6-6S13.3-0.1,10-0.1z M10,9.9c-2.2,0-4-1.8-4-4s1.8-4,4-4s4,1.8,4,4
	S12.2,9.9,10,9.9z"/>
</svg>
