<svg version="1.1" id="Layer_1" xmlns="http://www.w3.org/2000/svg" xmlns:xlink="http://www.w3.org/1999/xlink" x="0px" y="0px"
	 width="16px" height="16px" viewBox="0 0 16 16" style="enable-background:new 0 0 16 16;fill:#fff" xml:space="preserve">
<path d="M15.4,0l-15,3.8C0.1,3.8,0,4,0,4.2v4.2c0,0.2,0.2,0.4,0.4,0.5l15,2.8c0.3,0.1,0.6-0.2,0.6-0.5V0.5C16,0.2,15.7-0.1,15.4,0z
	 M8.8,13.3l-4-0.7V11l-2-0.4v2.5c0,0.7,0.6,1.3,1.4,1.5l4.4,0.7c0.1,0,0.2,0,0.4,0c0.5,0,0.9-0.2,1.3-0.4c0.3-0.3,0.5-0.7,0.5-1.1
	v-1.8l-2-0.4V13.3z"/>
</svg>
