<svg version="1.1" id="Layer_1" xmlns="http://www.w3.org/2000/svg" xmlns:xlink="http://www.w3.org/1999/xlink" x="0px" y="0px"
	 width="48px" height="48px" viewBox="0 0 48 48" style="enable-background:new 0 0 48 48;" xml:space="preserve">
<style type="text/css">
	.st0{fill:#FFFFFF;}
	.st1{fill:#231F20;}
	.st2{fill:#009444;}
	.st3{fill:#7F3F98;}
	.st4{fill:#27AAE1;}
	.st5{fill:#FBB040;}
	.st6{fill:#D3001A;}
</style>
<g>
	<path class="st0" d="M38,48H10C4.5,48,0,43.5,0,38V10C0,4.5,4.5,0,10,0h28c5.5,0,10,4.5,10,10v28C48,43.5,43.5,48,38,48z"/>
	<g>
		<circle class="st1" cx="24" cy="25.4" r="0"/>
		<circle class="st1" cx="24" cy="25.4" r="0"/>
		<polygon class="st1" points="24,25.4 24,25.4 24,25.4 		"/>
		<polygon class="st1" points="24,25.4 24,25.4 24,25.4 		"/>
		<polygon class="st1" points="24,25.4 24,25.4 24,25.4 		"/>
		<rect x="24" y="25.4" class="st1" width="0" height="0"/>
		<circle class="st1" cx="24" cy="25.4" r="0"/>
		<circle class="st1" cx="24" cy="25.4" r="0"/>
		<polygon class="st1" points="24,25.4 24,25.4 24,25.4 		"/>
		<polygon class="st1" points="24,25.4 24,25.4 24,25.4 		"/>
		<polygon class="st1" points="24,25.4 24,25.4 24,25.4 		"/>
		<rect x="24" y="25.4" class="st1" width="0" height="0"/>
		<polygon class="st2" points="27.3,20.9 24,25.4 24,25.4 29.3,27.1 38,20.9 		"/>
		<polygon class="st3" points="24,25.4 18.7,27.1 15.3,37.3 24,31 24,25.4 		"/>
		<polygon class="st4" points="29.3,27.1 24,25.4 24,31 32.7,37.3 		"/>
		<polygon class="st5" points="24,10.7 20.7,20.9 24,25.4 24,25.4 24,25.4 27.3,20.9 		"/>
		<polygon class="st6" points="20.7,20.9 10,20.9 18.7,27.1 24,25.4 		"/>
	</g>
</g>
</svg>
