<svg version="1.1" id="Layer_1" xmlns="http://www.w3.org/2000/svg" xmlns:xlink="http://www.w3.org/1999/xlink" x="0px" y="0px"
	 width="16px" height="16px" viewBox="0 0 16 16" style="enable-background:new 0 0 16 16;fill:#fff" xml:space="preserve">
<path d="M8,3c0.8,0,1.6,0.2,2.3,0.6l2.2-2.2C11.2,0.5,9.7,0,8,0S4.8,0.5,3.5,1.4l2.2,2.2C6.4,3.2,7.2,3,8,3z M14.6,3.5l-2.2,2.2
	C12.8,6.4,13,7.2,13,8s-0.2,1.6-0.6,2.3l2.2,2.2C15.5,11.2,16,9.7,16,8S15.5,4.8,14.6,3.5z M8,13c-0.8,0-1.6-0.2-2.3-0.6l-2.2,2.2
	C4.8,15.5,6.3,16,8,16s3.2-0.5,4.5-1.4l-2.2-2.2C9.6,12.8,8.8,13,8,13z M3,8c0-0.8,0.2-1.6,0.6-2.3L1.4,3.5C0.5,4.8,0,6.3,0,8
	s0.5,3.2,1.4,4.5l2.2-2.2C3.2,9.6,3,8.8,3,8z"/>
</svg>
